<svg width="20" height="20" clip-rule="evenodd" fill-rule="evenodd" stroke-linejoin="round" stroke-miterlimit="2" version="1.1" viewBox="0 0 20 20" xmlns="http://www.w3.org/2000/svg">
	<path d="m1.3889 8.1019 5.7581-1.0127 2.8067-5.4398 2.8935 5.5845 6.1343 0.95487-4.1956 3.9063 0.95487 6.4236-5.7003-2.691-5.6713 2.8067 1.1574-6.2211z" fill="#fff" stroke-width="3.874" style="paint-order:markers fill stroke" />
	<path d="m0.74023 7.8248 9.27 3.5071 8.8865-3.3487-4.0579 4.4004 0.83887 6.3632-5.7289-2.9668-5.4834 2.9463 0.94118-6.2609z" fill="#273990" stroke-width="3.874" style="paint-order:markers fill stroke" />
	<path d="m9.322 0.923c0.126-0.259 0.39-0.423 0.678-0.423 0.289 0 0.552 0.164 0.678 0.423 0.974 1.998 2.65 5.44 2.65 5.44s3.811 0.524 6.022 0.829c0.403 0.055 0.65 0.396 0.65 0.747 0 0.19-0.072 0.383-0.231 0.536-1.61 1.538-4.382 4.191-4.382 4.191s0.677 3.767 1.069 5.952c0.083 0.462-0.275 0.882-0.742 0.882-0.122 0-0.244-0.029-0.355-0.089-1.968-1.048-5.359-2.851-5.359-2.851s-3.391 1.803-5.359 2.851c-0.111 0.06-0.234 0.089-0.356 0.089-0.465 0-0.825-0.421-0.741-0.882 0.393-2.185 1.07-5.952 1.07-5.952s-2.773-2.653-4.382-4.191c-0.16-0.153-0.232-0.346-0.232-0.535 0-0.352 0.249-0.694 0.651-0.748 2.211-0.305 6.021-0.829 6.021-0.829s1.677-3.442 2.65-5.44zm0.678 2.033-2.361 4.792-5.246 0.719 3.848 3.643-0.948 5.255 4.707-2.505 4.707 2.505-0.951-5.236 3.851-3.662-5.314-0.756z" fill-rule="nonzero" />
	<ellipse cx="10" cy="8.8247" rx=".86806" ry="1.2153" fill="#ec018c" stroke-width="4.5461" style="paint-order:markers fill stroke" />
</svg>
