<svg width="166" height="82" viewBox="0 0 166 82" fill="none" xmlns="http://www.w3.org/2000/svg">
<path d="M83 26.6626C105.849 26.6626 126.49 29.5372 141.385 34.311C148.837 36.6997 154.793 39.5458 158.865 42.7007C162.945 45.8617 165 49.2214 165 52.647C165 56.0778 162.939 59.5014 158.854 62.7573C154.78 66.0054 148.821 68.9747 141.37 71.4868C126.478 76.5076 105.841 79.6304 83 79.6304C60.1589 79.6304 39.5219 76.5076 24.6299 71.4868C17.1788 68.9747 11.2203 66.0054 7.14551 62.7573C3.06091 59.5014 1.00009 56.0778 1 52.647C1 49.2214 3.05508 45.8617 7.13477 42.7007C11.2066 39.5458 17.1626 36.6997 24.6152 34.311C39.5096 29.5372 60.1509 26.6626 83 26.6626Z" fill="white" stroke="black" stroke-width="2"/>
<line x1="70.8252" y1="27.3931" x2="70.8252" y2="38.3135" stroke="black" stroke-width="2"/>
<line x1="78.7297" y1="27.3931" x2="78.7297" y2="38.3135" stroke="black" stroke-width="2"/>
<line x1="86.6353" y1="27.3931" x2="86.6353" y2="38.3135" stroke="black" stroke-width="2"/>
<line x1="94.5398" y1="27.3931" x2="94.5398" y2="38.3135" stroke="black" stroke-width="2"/>
<line x1="102.444" y1="27.3931" x2="102.444" y2="38.3135" stroke="black" stroke-width="2"/>
<line x1="110.349" y1="28.7581" x2="110.349" y2="39.6785" stroke="black" stroke-width="2"/>
<line x1="118.254" y1="28.7581" x2="118.254" y2="39.6785" stroke="black" stroke-width="2"/>
<line x1="126.159" y1="30.1233" x2="126.159" y2="41.0437" stroke="black" stroke-width="2"/>
<line x1="134.063" y1="32.8533" x2="134.063" y2="43.7737" stroke="black" stroke-width="2"/>
<line x1="141.968" y1="34.2185" x2="141.968" y2="45.1389" stroke="black" stroke-width="2"/>
<line x1="149.873" y1="37.3135" x2="149.873" y2="48.2339" stroke="black" stroke-width="2"/>
<line x1="157.778" y1="42.4087" x2="157.778" y2="54.6942" stroke="black" stroke-width="2"/>
<line x1="62.9207" y1="27.3931" x2="62.9207" y2="38.3135" stroke="black" stroke-width="2"/>
<line x1="55.0161" y1="27.3931" x2="55.0161" y2="38.3135" stroke="black" stroke-width="2"/>
<line x1="47.1116" y1="28.7581" x2="47.1116" y2="39.6785" stroke="black" stroke-width="2"/>
<line x1="39.2061" y1="30.1233" x2="39.2061" y2="41.0437" stroke="black" stroke-width="2"/>
<line x1="31.3015" y1="32.4883" x2="31.3015" y2="43.4087" stroke="black" stroke-width="2"/>
<line x1="23.397" y1="34.2185" x2="23.397" y2="45.1389" stroke="black" stroke-width="2"/>
<line x1="15.4924" y1="37.9485" x2="15.4924" y2="48.8689" stroke="black" stroke-width="2"/>
<line x1="7.58691" y1="42.4087" x2="7.58691" y2="53.3291" stroke="black" stroke-width="2"/>
<path d="M162.048 57.4243C162.048 68.7327 126.657 79.6307 83.0004 79.6307C39.3436 79.6307 3.95276 68.7327 3.95276 57.4243C3.95276 46.1158 39.3436 36.9485 83.0004 36.9485C126.657 36.9485 162.048 46.1158 162.048 57.4243Z" fill="black"/>
<path d="M76.9548 39.6543L86.4755 79.3809L66.9607 78.6314L76.9548 39.6543Z" fill="#ED018C" stroke="black" stroke-width="2"/>
<path d="M83 26.6626C105.849 26.6626 126.49 29.5372 141.385 34.311C148.837 36.6997 154.793 39.5458 158.865 42.7007C162.945 45.8617 165 49.2214 165 52.647C165 56.0778 162.939 59.5014 158.854 62.7573C154.78 66.0054 148.821 68.9747 141.37 71.4868C126.478 76.5076 105.841 79.6304 83 79.6304C60.1589 79.6304 39.5219 76.5076 24.6299 71.4868C17.1788 68.9747 11.2203 66.0054 7.14551 62.7573C3.06091 59.5014 1.00009 56.0778 1 52.647C1 49.2214 3.05508 45.8617 7.13477 42.7007C11.2066 39.5458 17.1626 36.6997 24.6152 34.311C39.5096 29.5372 60.1509 26.6626 83 26.6626Z" stroke="black" stroke-width="2"/>
<path d="M102.059 3.21924L118.033 52.097H86.0858L102.059 3.21924Z" fill="#ED018C" stroke="black" stroke-width="2"/>
<path d="M134.03 26.123L145.743 67.623H122.316L134.03 26.123Z" fill="#ED018C" stroke="black" stroke-width="2"/>
<path d="M39.5 25.2192L51.1913 65.7192H27.8087L39.5 25.2192Z" fill="#ED018C" stroke="black" stroke-width="2"/>
</svg>
