<svg width="63" height="302" viewBox="0 0 63 302" fill="none" xmlns="http://www.w3.org/2000/svg">
	<rect x="1" y="1" width="13" height="96" fill="#DFFF00" stroke="black" stroke-width="2" />
	<rect x="49" y="1" width="13" height="96" fill="#DFFF00" stroke="black" stroke-width="2" />
	<rect x="62" y="25" width="12" height="61" transform="rotate(90 62 25)" fill="#DFFF00" stroke="black" stroke-width="2" />
	<rect x="62" y="55" width="12" height="61" transform="rotate(90 62 55)" fill="#DFFF00" stroke="black" stroke-width="2" />
	<rect x="62" y="85" width="12" height="61" transform="rotate(90 62 85)" fill="#DFFF00" stroke="black" stroke-width="2" />
	<rect x="1" y="97" width="13" height="90" fill="#DFFF00" stroke="black" stroke-width="2" />
	<rect x="49" y="97" width="13" height="90" fill="#DFFF00" stroke="black" stroke-width="2" />
	<rect x="62" y="115" width="12" height="61" transform="rotate(90 62 115)" fill="#DFFF00" stroke="black" stroke-width="2" />
	<rect x="62" y="145" width="12" height="61" transform="rotate(90 62 145)" fill="#DFFF00" stroke="black" stroke-width="2" />
	<rect x="62" y="175" width="12" height="61" transform="rotate(90 62 175)" fill="#DFFF00" stroke="black" stroke-width="2" />
	<rect x="1" y="187" width="13" height="114" fill="#DFFF00" stroke="black" stroke-width="2" />
	<rect x="49" y="187" width="13" height="114" fill="#DFFF00" stroke="black" stroke-width="2" />
	<rect x="62" y="205" width="12" height="61" transform="rotate(90 62 205)" fill="#DFFF00" stroke="black" stroke-width="2" />
	<rect x="62" y="235" width="12" height="61" transform="rotate(90 62 235)" fill="#DFFF00" stroke="black" stroke-width="2" />
	<rect x="62" y="265" width="12" height="61" transform="rotate(90 62 265)" fill="#DFFF00" stroke="black" stroke-width="2" />
</svg>
