<svg width="187" height="236" viewBox="0 0 187 236" fill="none" xmlns="http://www.w3.org/2000/svg">
<path d="M101.795 112.96C99.8703 109.628 95.0617 109.628 93.1368 112.96L26.9507 227.498C25.0245 230.832 27.43 235 31.2799 235L163.652 235C167.502 235 169.907 230.832 167.981 227.498L101.795 112.96Z" fill="#ED018C" stroke="black" stroke-width="2" stroke-miterlimit="10"/>
<rect x="1.27992" y="-0.605968" width="8.14968" height="49.0753" transform="matrix(0.33779 -0.941221 0.942128 0.335253 128.272 122.032)" fill="white" stroke="black" stroke-width="2"/>
<rect x="-1.41302" y="-0.108591" width="9.52404" height="48.9749" transform="matrix(-0.760575 0.64925 -0.65244 -0.757841 133.498 114.851)" fill="white" stroke="black" stroke-width="2"/>
<rect x="92.7877" y="48.8976" width="9.35657" height="64.8223" fill="white" stroke="black" stroke-width="2"/>
<rect x="-0.242371" y="1.3903" width="9.51508" height="49.0146" transform="matrix(0.576861 0.816842 -0.819232 0.573462 94.4242 76.791)" fill="white" stroke="black" stroke-width="2"/>
<rect x="-0.757823" y="1.19211" width="9.63613" height="49.6717" transform="matrix(0.21851 0.975835 -0.976333 0.216274 57.1339 104.553)" fill="white" stroke="black" stroke-width="2"/>
<ellipse cx="178.511" cy="132.197" rx="8.25932" ry="9.25231" fill="black"/>
<ellipse cx="8.84587" cy="120.527" rx="8.25932" ry="9.25231" transform="rotate(3.74418 8.84587 120.527)" fill="black"/>
<path d="M90.7327 20.5853C90.7662 18.2832 90.0921 15.9493 88.6445 13.9025C85.2962 9.17258 78.6983 7.73025 73.6561 10.6117C67.9583 13.8625 66.198 21.1373 69.6803 26.5857C70.8775 28.4588 72.537 29.8634 74.4102 30.7448C76.6834 31.8159 77.7827 34.4806 76.7218 36.7596C73.5356 43.5622 74.2191 51.9571 79.5817 58.3562C85.5075 65.4327 95.7451 67.5696 104.06 63.5006C115.165 58.0699 118.797 44.4652 112.357 34.39C108.493 28.3435 101.938 25.0361 95.2305 25.0208C92.7643 25.0139 90.7002 23.0345 90.7327 20.5853Z" fill="black" stroke="black" stroke-width="2" stroke-miterlimit="10"/>
<path d="M101.78 36.8659C94.8906 34.5053 88.2442 38.9244 86.1064 40.483C87.1846 42.6854 90.2922 49.5302 96.6895 51.7222C103.087 53.9142 110.149 50.5541 111.942 49.3354C111.619 46.9337 108.669 39.2266 101.78 36.8659Z" fill="white" stroke="black"/>
<path d="M103.892 38.1776C104.709 38.4617 105.419 39.3399 105.732 40.868C106.039 42.3718 105.908 44.3251 105.206 46.3455C104.504 48.3656 103.396 49.9791 102.223 50.9681C101.03 51.9732 99.9281 52.2219 99.1108 51.938C98.2935 51.654 97.5834 50.7758 97.2708 49.2476C96.9633 47.7439 97.0937 45.7911 97.7956 43.7708C98.4977 41.7503 99.6064 40.1366 100.78 39.1475C101.973 38.1423 103.075 37.8936 103.892 38.1776Z" fill="black" stroke="black" stroke-width="2"/>
</svg>
