<svg width="214" height="236" viewBox="0 0 214 236" fill="none" xmlns="http://www.w3.org/2000/svg">
<path d="M164.167 109.109L150.682 149.363L159.577 152.664L175.621 113.36L172.788 103.435L164.167 109.109Z" fill="#DFFF00" stroke="black" stroke-width="2"/>
<path d="M170.763 108.622C174.858 110.142 178.186 112.399 180.267 114.772C182.378 117.179 183.047 119.493 182.39 121.264C181.732 123.035 179.716 124.352 176.546 124.799C173.42 125.239 169.426 124.779 165.331 123.259C161.236 121.739 157.908 119.482 155.827 117.109C153.716 114.702 153.047 112.389 153.704 110.617C154.362 108.846 156.378 107.529 159.549 107.082C162.674 106.642 166.669 107.102 170.763 108.622Z" fill="#DFFF00" stroke="black" stroke-width="2"/>
<path d="M186.508 44.196L162.461 113.953L173.719 118.132L201.007 49.5772L198.79 33.3281L186.508 44.196Z" fill="#DFFF00" stroke="black" stroke-width="2"/>
<path d="M161.601 154.752C162.061 154.475 162.484 154.126 162.815 153.689C164.379 151.614 163.88 148.428 161.479 147.364C161.4 147.329 161.321 147.297 161.241 147.267C159.5 146.621 157.584 147.218 156.384 148.619C156.242 148.788 155.991 148.694 155.991 148.473C155.995 146.631 154.932 144.928 153.192 144.282C153.111 144.253 153.031 144.223 152.948 144.201C150.434 143.44 147.979 145.527 147.81 148.119C147.772 148.666 147.868 149.207 148.036 149.717L151.457 160.143C151.56 160.463 151.919 160.596 152.207 160.422L161.601 154.752Z" fill="#DFFF00" stroke="#1D1D1B" stroke-width="2" stroke-miterlimit="10"/>
<path d="M79.1394 112.015C77.2154 108.679 72.4012 108.679 70.4771 112.015L4.32509 226.7C2.40237 230.034 4.80811 234.199 8.6562 234.199L140.96 234.199C144.808 234.199 147.214 230.034 145.291 226.7L79.1394 112.015Z" fill="#ED018C" stroke="black" stroke-width="2" stroke-miterlimit="10"/>
<rect x="105.297" y="120.008" width="8.11813" height="48.7493" transform="rotate(-70.335 105.297 120.008)" fill="white" stroke="black" stroke-width="2"/>
<rect x="111.749" y="113.417" width="9.46559" height="48.7493" transform="rotate(139.395 111.749 113.417)" fill="white" stroke="black" stroke-width="2"/>
<rect x="69.981" y="48.1781" width="9.46559" height="64.726" fill="white" stroke="black" stroke-width="2"/>
<path d="M68.7327 20.5853C68.7662 18.2832 68.0921 15.9493 66.6445 13.9025C63.2962 9.17258 56.6983 7.73025 51.6561 10.6117C45.9583 13.8625 44.198 21.1373 47.6803 26.5857C48.8775 28.4588 50.537 29.8634 52.4102 30.7448C54.6834 31.8159 55.7827 34.4806 54.7218 36.7596C51.5356 43.5622 52.2191 51.9571 57.5817 58.3562C63.5075 65.4327 73.7451 67.5696 82.0599 63.5006C93.1647 58.0699 96.7969 44.4652 90.3574 34.39C86.4928 28.3435 79.9383 25.0361 73.2305 25.0208C70.7643 25.0139 68.7002 23.0345 68.7327 20.5853Z" fill="black" stroke="black" stroke-width="2" stroke-miterlimit="10"/>
<path d="M79.78 36.8659C72.8906 34.5053 66.2443 38.9244 64.1064 40.483C65.1847 42.6854 68.2923 49.5302 74.6896 51.7222C81.0868 53.9142 88.1493 50.5541 89.9416 49.3354C89.619 46.9337 86.6694 39.2266 79.78 36.8659Z" fill="white" stroke="black"/>
<path d="M81.8919 38.1776C82.7092 38.4617 83.4193 39.3399 83.7319 40.868C84.0394 42.3718 83.9078 44.3251 83.2058 46.3455C82.5039 48.3656 81.3962 49.9791 80.2226 50.9681C79.0299 51.9732 77.9281 52.2219 77.1108 51.938C76.2935 51.654 75.5834 50.7758 75.2708 49.2476C74.9633 47.7439 75.0938 45.7911 75.7957 43.7708C76.4977 41.7503 77.6064 40.1366 78.7801 39.1475C79.973 38.1423 81.0746 37.8936 81.8919 38.1776Z" fill="black" stroke="black" stroke-width="2"/>
<rect x="69.9616" y="74.5227" width="9.46559" height="49.4127" transform="rotate(51.1448 69.9616 74.5227)" fill="white" stroke="black" stroke-width="2"/>
<rect x="25.4604" y="113.237" width="9.46559" height="48.7493" transform="rotate(-52.5721 25.4604 113.237)" fill="white" stroke="black" stroke-width="2"/>
<ellipse cx="154.898" cy="132.645" rx="8.27026" ry="9.30404" transform="rotate(-62.9242 154.898 132.645)" fill="black"/>
<ellipse cx="67.4068" cy="138.067" rx="8.27026" ry="9.30404" transform="rotate(-126.272 67.4068 138.067)" fill="black"/>
</svg>
