<svg width="93" height="193" viewBox="0 0 93 193" fill="none" xmlns="http://www.w3.org/2000/svg">
<path d="M24.3868 64.8468L15.6315 16.4534L26.3779 14.15L38.2258 61.8806L33.326 72.7866L24.3868 64.8468Z" fill="#DFFF00" stroke="black" stroke-width="2"/>
<path d="M31.9009 66.6586C36.8691 65.5937 41.085 63.5495 43.8899 61.1556C46.7292 58.7322 47.9338 56.1375 47.4571 53.9131C46.9803 51.6888 44.818 49.8157 41.2349 48.7689C37.6953 47.7349 33.0119 47.5981 28.0438 48.663C23.0759 49.7279 18.8605 51.772 16.0558 54.1658C13.2165 56.5892 12.0119 59.1839 12.4886 61.4083C12.9654 63.6326 15.1276 65.5056 18.7108 66.5525C22.2502 67.5865 26.933 67.7234 31.9009 66.6586Z" fill="#DFFF00" stroke="black" stroke-width="2"/>
<path d="M39.1897 142.984L23.2375 59.0087L36.8404 56.0931L56.7071 139.23L51.4597 157.489L39.1897 142.984Z" fill="#DFFF00" stroke="black" stroke-width="2"/>
<path d="M29.0468 12.093C29.5276 12.4877 29.9548 12.9577 30.2611 13.5142C31.7079 16.1536 30.6061 19.7226 27.6757 20.5424C27.5802 20.5696 27.4839 20.5936 27.3869 20.6144C25.2839 21.0651 23.1862 20.0619 22.0446 18.2551C21.9095 18.0385 21.6065 18.1035 21.5689 18.357C21.2674 20.4698 19.7652 22.2446 17.6622 22.6954C17.5652 22.7162 17.4682 22.737 17.3692 22.7481C14.3603 23.2013 11.8932 20.4007 12.1312 17.4002C12.1794 16.7677 12.3795 16.1632 12.6563 15.6061L18.3144 4.22332C18.4867 3.87363 18.92 3.78075 19.2205 4.02912L29.0468 12.093Z" fill="#DFFF00" stroke="#1D1D1B" stroke-width="2" stroke-miterlimit="10"/>
<path d="M47.3358 135C23.2371 135 3.2565 160.181 2.84558 192H91.826C91.4151 160.181 71.4345 135 47.3358 135Z" fill="white" stroke="black" stroke-width="2"/>
<line y1="-1" x2="16.7631" y2="-1" transform="matrix(-0.95448 0.298275 0.298275 0.95448 52.8358 169)" stroke="black" stroke-width="2"/>
<line y1="-1" x2="14.3178" y2="-1" transform="matrix(-0.907959 -0.419058 -0.419058 0.907959 16.8358 186)" stroke="black" stroke-width="2"/>
<line y1="-1" x2="23.7697" y2="-1" transform="matrix(0.925547 0.378633 0.378633 -0.925547 46.8358 146)" stroke="black" stroke-width="2"/>
</svg>
