<svg width="266" height="276" viewBox="0 0 266 276" fill="none" xmlns="http://www.w3.org/2000/svg">
	<mask id="path-14-inside-1_70_4063" fill="white">
		<path fill-rule="evenodd" clip-rule="evenodd" d="M149.545 82.1746C151.94 77.9153 153.348 72.7088 153.348 67.087C153.348 52.6795 144.102 41 132.696 41C121.29 41 112.043 52.6795 112.043 67.087C112.043 72.7088 113.451 77.9153 115.846 82.1746C105.775 87.6251 99 97.8115 99 109.478C99 126.887 114.086 141 132.696 141C151.305 141 166.391 126.887 166.391 109.478C166.391 97.8115 159.616 87.6251 149.545 82.1746Z" />
	</mask>
	<path fill-rule="evenodd" clip-rule="evenodd" d="M149.545 82.1746C151.94 77.9153 153.348 72.7088 153.348 67.087C153.348 52.6795 144.102 41 132.696 41C121.29 41 112.043 52.6795 112.043 67.087C112.043 72.7088 113.451 77.9153 115.846 82.1746C105.775 87.6251 99 97.8115 99 109.478C99 126.887 114.086 141 132.696 141C151.305 141 166.391 126.887 166.391 109.478C166.391 97.8115 159.616 87.6251 149.545 82.1746Z" fill="#ED018C" />
	<path d="M149.545 82.1746L147.802 81.1944L146.806 82.9661L148.593 83.9335L149.545 82.1746ZM115.846 82.1746L116.798 83.9335L118.585 82.9661L117.589 81.1945L115.846 82.1746ZM151.348 67.087C151.348 72.3787 150.022 77.2458 147.802 81.1944L151.289 83.1547C153.858 78.5848 155.348 73.0388 155.348 67.087H151.348ZM132.696 43C142.587 43 151.348 53.3233 151.348 67.087H155.348C155.348 52.0358 145.616 39 132.696 39V43ZM114.043 67.087C114.043 53.3233 122.805 43 132.696 43V39C119.775 39 110.043 52.0358 110.043 67.087H114.043ZM117.589 81.1945C115.369 77.2458 114.043 72.3787 114.043 67.087H110.043C110.043 73.0388 111.533 78.5848 114.103 83.1547L117.589 81.1945ZM101 109.478C101 98.6213 107.304 89.072 116.798 83.9335L114.894 80.4157C104.247 86.1782 97 97.0017 97 109.478H101ZM132.696 139C115.063 139 101 125.659 101 109.478H97C97 128.115 113.109 143 132.696 143V139ZM164.391 109.478C164.391 125.659 150.328 139 132.696 139V143C152.282 143 168.391 128.115 168.391 109.478H164.391ZM148.593 83.9335C158.088 89.072 164.391 98.6213 164.391 109.478H168.391C168.391 97.0017 161.144 86.1781 150.497 80.4157L148.593 83.9335Z" fill="black" mask="url(#path-14-inside-1_70_4063)" />
	<path d="M98.2222 57.4893L108.415 39.8347L123.354 60.2289L98.2222 57.4893Z" fill="#DFFF00" stroke="black" stroke-width="2" />
	<path d="M156.857 37.8345L167.05 55.489L141.918 58.2295L156.857 37.8345Z" fill="#DFFF00" stroke="black" stroke-width="2" />
	<path d="M116.348 14.75L149.652 14.75L133 52.5215L116.348 14.75Z" fill="#DFFF00" stroke="black" stroke-width="2" />
</svg>
